<?xml version="1.0" encoding="utf-8"?>
<!-- Generator: Adobe Illustrator 23.1.0, SVG Export Plug-In . SVG Version: 6.00 Build 0)  -->
<!DOCTYPE svg PUBLIC "-//W3C//DTD SVG 1.1//EN" "http://www.w3.org/Graphics/SVG/1.1/DTD/svg11.dtd" [
	<!ENTITY ns_extend "http://ns.adobe.com/Extensibility/1.0/">
	<!ENTITY ns_ai "http://ns.adobe.com/AdobeIllustrator/10.0/">
	<!ENTITY ns_graphs "http://ns.adobe.com/Graphs/1.0/">
	<!ENTITY ns_vars "http://ns.adobe.com/Variables/1.0/">
	<!ENTITY ns_imrep "http://ns.adobe.com/ImageReplacement/1.0/">
	<!ENTITY ns_sfw "http://ns.adobe.com/SaveForWeb/1.0/">
	<!ENTITY ns_custom "http://ns.adobe.com/GenericCustomNamespace/1.0/">
	<!ENTITY ns_adobe_xpath "http://ns.adobe.com/XPath/1.0/">
]>
<svg version="1.1" xmlns:x="&ns_extend;" xmlns:i="&ns_ai;" xmlns:graph="&ns_graphs;"
	 xmlns="http://www.w3.org/2000/svg" xmlns:xlink="http://www.w3.org/1999/xlink" x="0px" y="0px" viewBox="0 0 802.5 802.5"
	 style="enable-background:new 0 0 802.5 802.5;" xml:space="preserve">
<style type="text/css">
	.st0{fill:#FFFFFF;stroke:#F3F3F3;stroke-width:2.5;stroke-miterlimit:10;}
	.st1{fill:#C7C7CC;}
	.st2{fill:#007AFF;}
	.st3{fill:#FF3B30;}
	.st4{fill:#FF9500;}
	.st5{display:none;}
	.st6{display:inline;fill:#FFFFFF;stroke:#F3F3F3;stroke-width:2.5;stroke-miterlimit:10;}
</style>
<metadata>
	<sfw  xmlns="&ns_sfw;">
		<slices></slices>
		<sliceSourceBounds  bottomLeftOrigin="true" height="802.5" width="802.5" x="-91" y="1945.3"></sliceSourceBounds>
	</sfw>
</metadata>
<g>
	<g>
		<path class="st0" d="M639.6,1.3H162.8C73.5,1.3,1.3,73.5,1.3,162.8v476.9c0,89.2,72.3,161.5,161.6,161.5h476.8
			c89.2,0,161.6-72.3,161.6-161.6V162.8C801.2,73.5,728.9,1.3,639.6,1.3z"/>
		<g>
			<path class="st1" d="M299.1,195.4c0.9-0.3,1.9-0.4,2.8-0.4c132.9,0,265.7,0,398.5,0c3.9-0.4,7.7,3,7.4,7
				c-0.1,3.7-3.7,6.6-7.4,6.3c-132.8,0-265.7,0-398.5,0c-3.7,0.4-7.3-2.5-7.4-6.3C294.4,199.1,296.4,196.3,299.1,195.4z"/>
			<path class="st1" d="M299.2,395.3c0.9-0.3,1.8-0.4,2.8-0.4c132.9,0,265.7,0,398.6,0c3.9-0.4,7.7,3,7.4,7
				c-0.1,3.7-3.7,6.7-7.4,6.3c-133.1,0-266.2,0-399.3,0c-4.5,0.2-8-5.1-6-9.2C295.9,397.3,297.4,395.9,299.2,395.3z"/>
			<path class="st1" d="M299.2,595.3c0.9-0.3,1.9-0.4,2.8-0.3c129.4,0,258.9,0,388.4,0c4.1,0.1,8.3-0.2,12.4,0.2
				c4.8,0.9,6.8,7.5,3.4,10.9c-2.4,2.8-6.4,2.1-9.6,2.2c-130.2,0-260.4,0-390.6,0c-3.3-0.1-7.2,0.6-9.6-2.2
				C293.1,602.8,294.7,596.6,299.2,595.3z"/>
		</g>
		<g>
			<path class="st2" d="M143.8,135.4c13.1-1.6,26.8,0.7,38.6,6.7c13.4,6.8,24.4,18.2,30.7,31.8c6.3,13.5,7.8,29.1,4.4,43.5
				c-3.4,14.6-11.9,28-23.6,37.3c-10.1,8.1-22.6,13.1-35.4,14.3c-13.5,1.3-27.3-1.6-39.1-8.2c-12.8-7.1-23.1-18.6-28.9-32
				c-6-13.9-7.1-29.9-3-44.6c3.5-12.7,10.9-24.3,20.9-32.9C118.2,142.5,130.7,136.9,143.8,135.4 M148.2,149
				c-16,1-31.2,9.9-40.1,23.1c-7.1,10.3-10.3,23-8.9,35.4c1.3,12.4,7.1,24.2,16.1,32.8c8.6,8.3,20.1,13.6,32,14.6
				c11.2,1,22.6-1.6,32.2-7.5c10-6,17.9-15.5,22.1-26.4c4.6-11.7,4.7-25.1,0.4-36.9c-3.9-11-11.7-20.7-21.6-27
				C171,151.1,159.5,148.2,148.2,149z"/>
			<path class="st2" d="M143.8,163.6c10.2-2.2,21.3-0.1,29.9,5.8c9.4,6.2,15.8,16.7,17,27.9c1.2,10.1-1.7,20.6-8,28.6
				c-6.9,9-17.9,14.7-29.2,15c-11.7,0.6-23.4-4.5-31-13.3c-8.1-9.1-11.5-22.2-8.7-34.1C116.9,178.8,129.2,166.6,143.8,163.6z"/>
		</g>
		<g>
			<path class="st3" d="M143,335.5c13.7-1.9,28,0.6,40.3,7.1c13.2,6.9,23.9,18.3,30,31.9c6.1,13.5,7.5,28.9,4.1,43.3
				c-2.8,11.8-8.9,22.8-17.5,31.4c-9.7,9.9-22.5,16.7-36.1,19c-14.6,2.6-30,0.3-43.1-6.7c-12.8-6.7-23.3-17.7-29.4-30.7
				c-5.8-12.3-7.8-26.3-5.5-39.7c2.3-14.3,9.5-27.6,19.9-37.6C115.8,343.7,129.1,337.3,143,335.5 M148.3,349
				c-16.2,1-31.6,10.1-40.5,23.6c-6.7,9.9-9.8,22.1-8.7,34c1,11.7,6.1,23.1,14.2,31.6c8.6,9.2,20.6,15.2,33.2,16.5
				c11,1.2,22.4-1.2,32-6.8c10.6-6.1,19-16,23.3-27.5c4.4-11.6,4.4-24.8,0.2-36.4c-4-11.2-11.9-21-22.1-27.2
				C170.6,351,159.3,348.2,148.3,349z"/>
			<path class="st3" d="M147.5,363.1c10.8-1.3,22,2.2,30.1,9.4c8.4,7.3,13.4,18.4,13.3,29.5c0,9.8-3.9,19.6-10.7,26.7
				c-7,7.5-17.2,12.1-27.5,12.2c-11.4,0.4-22.9-4.6-30.3-13.3c-6-6.8-9.5-15.7-9.7-24.8c-0.2-9.6,3.2-19.3,9.6-26.5
				C128.7,369,137.9,364.1,147.5,363.1z"/>
		</g>
	</g>
	<g>
		<path class="st4" d="M143.1,535.5c13.7-1.9,28,0.6,40.3,7.1c13,6.8,23.6,18,29.7,31.3c6.1,13.1,7.7,28.1,4.7,42.1
			c-5.1,25.4-26.3,46.6-51.7,51.7c-15.2,3.3-31.5,1.1-45.3-6.2c-12.6-6.6-23-17.4-29.2-30.2c-5.3-11-7.5-23.4-6.4-35.6
			c1.2-13.6,6.8-26.7,15.6-37.1C111.4,546,126.7,537.6,143.1,535.5 M148.3,549c-15.4,1-30.1,9.2-39.2,21.8c-7.4,10-11,22.7-10,35.1
			c0.9,12.2,6.1,24,14.6,32.8c8.6,9,20.4,14.9,32.8,16.1c10.9,1.2,22.1-1.1,31.6-6.5c10.9-6.1,19.5-16.1,23.8-27.8
			c4.4-11.6,4.4-24.7,0.2-36.4c-4.1-11.4-12.2-21.3-22.5-27.5C170.2,550.9,159.1,548.3,148.3,549z"/>
		<path class="st4" d="M147.5,563.1c10.8-1.3,22,2.2,30.1,9.4c8.4,7.3,13.4,18.3,13.3,29.5c0.1,10.4-4.4,20.7-11.8,27.9
			c-7.5,7.4-18.2,11.5-28.7,11c-11-0.3-21.7-5.6-28.6-14.2c-5.9-7.1-9.1-16.3-8.9-25.5c0.1-9.3,3.7-18.5,9.9-25.3
			C129.1,568.8,138.1,564.1,147.5,563.1z"/>
	</g>
</g>
<g>
	<g class="st5">
		<path class="st6" d="M1.3,1.3h800v800H1.3V1.3 M143.8,135.4c-13.1,1.6-25.6,7.1-35.6,15.8c-10,8.6-17.4,20.2-20.9,32.9
			c-4.1,14.6-3,30.6,3,44.6c5.8,13.5,16.1,24.9,28.9,32c11.8,6.7,25.6,9.5,39.1,8.2c12.9-1.2,25.3-6.2,35.4-14.3
			c11.8-9.3,20.3-22.6,23.6-37.3c3.4-14.5,1.9-30-4.4-43.5c-6.3-13.6-17.3-25.1-30.7-31.8C170.5,136.1,156.9,133.7,143.8,135.4
			 M299.1,195.4c-2.8,0.9-4.7,3.8-4.5,6.7c0.1,3.7,3.7,6.7,7.4,6.3c132.8,0,265.6,0,398.5,0c3.6,0.4,7.3-2.5,7.4-6.3
			c0.4-4-3.4-7.5-7.4-7c-132.9,0-265.7,0-398.5,0C301,195,300,195.1,299.1,195.4 M143,335.5c-13.9,1.8-27.2,8.2-37.3,17.9
			c-10.5,9.9-17.6,23.3-19.9,37.6c-2.2,13.4-0.3,27.5,5.5,39.7c6.2,13.1,16.6,24,29.4,30.7c13.1,7,28.5,9.3,43.1,6.7
			c13.6-2.4,26.4-9.2,36.1-19c8.5-8.6,14.6-19.6,17.5-31.4c3.4-14.4,2-29.8-4.1-43.3c-6.1-13.6-16.8-25-30-31.9
			C171,336.1,156.8,333.6,143,335.5 M299.2,395.3c-1.8,0.6-3.3,2-4,3.7c-1.9,4.1,1.5,9.4,6,9.2c133.1,0.1,266.2,0,399.3,0
			c3.7,0.4,7.3-2.5,7.4-6.3c0.3-4-3.4-7.4-7.4-7c-132.9,0-265.7,0-398.6,0C301,395,300.1,395.1,299.2,395.3 M143.1,535.5
			c-16.3,2.1-31.7,10.6-42.3,23.2c-8.8,10.4-14.4,23.5-15.6,37.1c-1.2,12.1,1,24.6,6.4,35.6c6.2,12.9,16.6,23.6,29.2,30.2
			c13.7,7.3,30.1,9.5,45.3,6.2c25.4-5.1,46.6-26.3,51.7-51.7c3-14.1,1.4-29.1-4.7-42.1c-6.1-13.3-16.7-24.5-29.7-31.3
			C171.1,536.1,156.8,533.6,143.1,535.5 M299.2,595.3c-4.4,1.3-6.1,7.5-2.8,10.8c2.4,2.8,6.3,2.1,9.6,2.2c130.2,0,260.4,0,390.6,0
			c3.3-0.1,7.2,0.6,9.6-2.2c3.5-3.4,1.4-10-3.4-10.9c-4.1-0.4-8.3-0.1-12.4-0.2c-129.5,0-258.9,0-388.4,0
			C301,595,300.1,595.1,299.2,595.3z"/>
		<path class="st6" d="M148.2,149c11.2-0.8,22.7,2.1,32.2,8.1c9.9,6.3,17.6,15.9,21.6,27c4.3,11.8,4.1,25.2-0.4,36.9
			c-4.2,10.9-12.1,20.4-22.1,26.4c-9.6,5.9-21.1,8.5-32.2,7.5c-11.9-1-23.4-6.3-32-14.6c-9-8.6-14.8-20.4-16.1-32.8
			c-1.3-12.4,1.9-25.2,8.9-35.4C117.1,158.9,132.3,150.1,148.2,149 M143.8,163.6c-14.6,3-26.9,15.1-29.9,29.8
			c-2.7,11.9,0.6,25,8.7,34.1c7.6,8.8,19.3,13.9,31,13.3c11.3-0.4,22.3-6.1,29.2-15c6.3-8,9.2-18.5,8-28.6
			c-1.2-11.2-7.7-21.6-17-27.9C165.1,163.5,154,161.4,143.8,163.6z"/>
		<path class="st6" d="M148.3,349c11-0.8,22.3,1.9,31.7,7.8c10.1,6.3,18.1,16,22.1,27.2c4.2,11.7,4.1,24.8-0.2,36.4
			c-4.3,11.5-12.6,21.4-23.3,27.5c-9.6,5.6-21,8-32,6.8c-12.6-1.2-24.6-7.3-33.2-16.5c-8.1-8.6-13.2-19.9-14.2-31.6
			c-1.1-11.9,2-24.1,8.7-34C116.7,359.1,132.1,350.1,148.3,349 M147.5,363.1c-9.6,1-18.8,5.9-25.1,13.2c-6.4,7.2-9.8,16.9-9.6,26.5
			c0.2,9.1,3.6,18,9.7,24.8c7.4,8.7,18.9,13.7,30.3,13.3c10.3-0.1,20.4-4.7,27.5-12.2c6.8-7.1,10.7-16.9,10.7-26.7
			c0.1-11.2-4.9-22.2-13.3-29.5C169.5,365.3,158.3,361.8,147.5,363.1z"/>
		<path class="st6" d="M148.3,549c10.9-0.8,22,1.9,31.3,7.5c10.4,6.3,18.5,16.1,22.5,27.5c4.2,11.6,4.1,24.8-0.2,36.4
			c-4.3,11.7-12.9,21.7-23.8,27.8c-9.5,5.4-20.7,7.7-31.6,6.5c-12.4-1.3-24.2-7.1-32.8-16.1c-8.5-8.8-13.8-20.6-14.6-32.8
			c-1-12.4,2.7-25.1,10-35.1C118.1,558.3,132.8,550,148.3,549 M147.5,563.1c-9.4,1-18.4,5.7-24.7,12.8c-6.2,6.9-9.8,16.1-9.9,25.3
			c-0.2,9.2,3,18.5,8.9,25.5c6.9,8.5,17.6,13.8,28.6,14.2c10.5,0.5,21.2-3.6,28.7-11c7.5-7.2,11.9-17.5,11.8-27.9
			c0.1-11.1-4.9-22.2-13.3-29.5C169.5,565.3,158.3,561.8,147.5,563.1z"/>
	</g>
</g>
</svg>
